<svg width="20" height="20" viewBox="0 0 20 20" fill="none" xmlns="http://www.w3.org/2000/svg">
<path d="M1.91576 5.74729H2.18944C3.24311 5.74729 4.10521 6.60939 4.10521 7.66306V17.2419C4.10521 18.2955 3.24311 19.1576 2.18944 19.1576H1.91576C0.862094 19.1576 0 18.2955 0 17.2419V7.66306C0 6.60939 0.862094 5.74729 1.91576 5.74729V5.74729ZM9.57882 0C10.6325 0 11.4946 0.862094 11.4946 1.91576V17.2419C11.4946 18.2955 10.6325 19.1576 9.57882 19.1576C8.52515 19.1576 7.66306 18.2955 7.66306 17.2419V1.91576C7.66306 0.862094 8.52515 0 9.57882 0ZM17.2419 10.9472C18.2955 10.9472 19.1576 11.8093 19.1576 12.863V17.2419C19.1576 18.2955 18.2955 19.1576 17.2419 19.1576C16.1882 19.1576 15.3261 18.2955 15.3261 17.2419V12.863C15.3261 11.8093 16.1882 10.9472 17.2419 10.9472V10.9472Z" fill="#1C4532"/>
</svg>
